<?xml version="1.0" encoding="UTF-8"?><svg id="Layer_2" xmlns="http://www.w3.org/2000/svg" viewBox="0 0 297 198"><defs><style>.cls-1{fill:#000203;}.cls-2{fill:#be4b43;}.cls-3{fill:#bd403d;}.cls-4{fill:#662a2c;}.cls-5{fill:#9b202d;}.cls-6{fill:#bb3e3b;}.cls-7{fill:#ba3031;}.cls-8{fill:#b21b29;}.cls-9{fill:#b9453f;}.cls-10{fill:#b93634;}.cls-11{fill:#333a3a;}.cls-12{fill:#b93e3d;}.cls-13{fill:#050b0b;}.cls-14{fill:#ac4744;}.cls-15{fill:#bb403f;}.cls-16{fill:#454f4c;}.cls-17{fill:#ba2630;}.cls-18{fill:#343b3b;}.cls-19{fill:#5d6161;}.cls-20{fill:#b03539;}.cls-21{fill:#2d3434;}.cls-22{fill:#3f4646;}.cls-23{fill:#b63a36;}.cls-24{fill:#b9262e;}.cls-25{fill:#7e2727;}.cls-26{fill:#b33935;}.cls-27{fill:#bd4943;}.cls-28{fill:#39413f;}.cls-29{fill:#2d3531;}.cls-30{fill:#37403e;}.cls-31{fill:#662830;}.cls-32{fill:#93282f;}.cls-33{fill:#b83b38;}.cls-34{fill:#b13b3d;}.cls-35{fill:#692f31;}.cls-36{fill:#ba2e32;}.cls-37{fill:#4f181a;}.cls-38{fill:#2b3232;}.cls-39{fill:#78101f;}.cls-40{fill:#ba413d;}.cls-41{fill:#b2252c;}.cls-42{fill:#b63335;}.cls-43{fill:#383e3c;}.cls-44{fill:#50272d;}.cls-45{fill:#b33d3e;}.cls-46{fill:#b93334;}.cls-47{fill:#2e3436;}.cls-48{fill:#040c0b;}.cls-49{fill:#0e1312;}.cls-50{fill:#bc443f;}.cls-51{fill:#37393a;}.cls-52{fill:#1e2323;}.cls-53{fill:#3d4543;}.cls-54{fill:#b52f31;}.cls-55{fill:#000304;}.cls-56{fill:#414848;}.cls-57{fill:#562b24;}.cls-58{fill:#b93c38;}.cls-59{fill:#2b0c0c;}.cls-60{fill:#1d2020;}.cls-61{fill:#2d312f;}.cls-62{fill:#b81828;}.cls-63{fill:#bb3b39;}.cls-64{fill:#525755;}.cls-65{fill:#090b0c;}.cls-66{fill:#474d52;}.cls-67{fill:#020909;}.cls-68{fill:#b93335;}.cls-69{fill:#b8232c;}.cls-70{fill:#853334;}.cls-71{fill:#b64744;}.cls-72{fill:#be5045;}.cls-73{fill:#070c0c;}.cls-74{fill:#8a3535;}.cls-75{fill:#75605c;}.cls-76{fill:#a2383c;}.cls-77{fill:#3b4240;}.cls-78{fill:#0f1414;}.cls-79{fill:#a13d39;}.cls-80{fill:#0b1111;}.cls-81{fill:#bc4541;}.cls-82{fill:#bb3537;}.cls-83{fill:#433d37;}.cls-84{fill:#474f4d;}.cls-85{fill:#010808;}.cls-86{fill:#a0a6a4;}.cls-87{fill:#171b1b;}.cls-88{fill:#3d4243;}.cls-89{fill:#404544;}.cls-90{fill:#464d4d;}.cls-91{fill:#9e2f36;}.cls-92{fill:#842d34;}.cls-93{fill:#485050;}.cls-94{fill:#bb3338;}.cls-95{fill:#838a8a;}.cls-96{fill:#b93f3b;}.cls-97{fill:#bb453f;}.cls-98{fill:#b0313c;}.cls-99{fill:#414546;}.cls-100{fill:#1f2121;}.cls-101{fill:#5c3530;}.cls-102{fill:#aa0c25;}.cls-103{fill:#bc3134;}.cls-104{fill:#030708;}.cls-105{fill:#040b0b;}.cls-106{fill:#bd3137;}.cls-107{fill:#bc3a38;}.cls-108{fill:#b9473f;}.cls-109{fill:#bb4840;}.cls-110{fill:#ac2030;}.cls-111{fill:#091010;}.cls-112{fill:#b9433d;}.cls-113{fill:#1e2523;}.cls-114{fill:#495050;}.cls-115{fill:#b71c2a;}.cls-116{fill:#272b2c;}.cls-117{fill:#88342f;}.cls-118{fill:#343839;}.cls-119{fill:#010707;}.cls-120{fill:#141819;}.cls-121{fill:#1b2020;}.cls-122{fill:#131919;}.cls-123{fill:#b93132;}.cls-124{fill:#ba3637;}.cls-125{fill:#0c1010;}.cls-126{fill:#bc413d;}.cls-127{fill:#424a49;}.cls-128{fill:#ba3d39;}.cls-129{fill:#301719;}.cls-130{fill:#73272e;}.cls-131{fill:#b5423e;}.cls-132{fill:#533434;}.cls-133{fill:#0c0f10;}.cls-134{fill:#692c34;}.cls-135{fill:#b73f3c;}.cls-136{fill:#5b6464;}.cls-137{fill:#454c4c;}.cls-138{fill:#953e37;}.cls-139{fill:#b74640;}.cls-140{fill:#424946;}.cls-141{fill:#ba433c;}.cls-142{fill:#1d1f1c;}.cls-143{fill:#7f8180;}.cls-144{fill:#ba2430;}.cls-145{fill:#983137;}.cls-146{fill:#bb3d3b;}.cls-147{fill:#727776;}.cls-148{fill:#37423e;}.cls-149{fill:#b43f3b;}.cls-150{fill:#000404;}.cls-151{fill:#b21325;}.cls-152{fill:#a05545;}.cls-153{fill:#291b18;}.cls-154{fill:#2f3435;}.cls-155{fill:#0b1212;}.cls-156{fill:#a62c33;}.cls-157{fill:#3e4746;}.cls-158{fill:#424947;}.cls-159{fill:#0a0f0e;}.cls-160{fill:#bb413d;}.cls-161{fill:#a01221;}.cls-162{fill:#1a2121;}.cls-163{fill:#ad1024;}.cls-164{fill:#111817;}.cls-165{fill:#1f2323;}.cls-166{fill:#4e1e1d;}.cls-167{fill:#ba3336;}.cls-168{fill:#ba2d31;}.cls-169{fill:#46514f;}.cls-170{fill:#373b3a;}.cls-171{fill:#434a4a;}.cls-172{fill:#89342f;}.cls-173{fill:#373e3e;}.cls-174{fill:#4e5150;}.cls-175{fill:#131618;}.cls-176{fill:#7b3535;}.cls-177{fill:#393f3e;}.cls-178{fill:#43514c;}.cls-179{fill:#505857;}.cls-180{fill:#030b0a;}.cls-181{fill:#a42b32;}.cls-182{fill:#020406;}.cls-183{fill:#1c2122;}.cls-184{fill:#949899;}.cls-185{fill:#3a3f3d;}.cls-186{fill:#be4e44;}.cls-187{fill:#2f302c;}.cls-188{fill:#a53338;}.cls-189{fill:#a0373c;}.cls-190{fill:#bf4c45;}.cls-191{fill:#7d3434;}.cls-192{fill:#b74646;}.cls-193{fill:#af1426;}.cls-194{fill:#111210;}.cls-195{fill:#5c4a4c;}.cls-196{fill:#b93a39;}.cls-197{fill:#5a393b;}.cls-198{fill:#b44c44;}.cls-199{fill:#ba242f;}.cls-200{fill:#0e1314;}.cls-201{fill:#b83433;}.cls-202{fill:#403b38;}.cls-203{fill:#b1282d;}.cls-204{fill:#010405;}.cls-205{fill:#ac242e;}.cls-206{fill:#3f3f3b;}.cls-207{fill:#55242b;}.cls-208{fill:#1b1f20;}.cls-209{fill:#020708;}.cls-210{fill:#404747;}.cls-211{fill:#b91e2c;}.cls-212{fill:#b23235;}.cls-213{fill:#6d2e2b;}.cls-214{fill:#5a4441;}.cls-215{fill:#bd423d;}.cls-216{fill:#ba3131;}.cls-217{fill:#2c3331;}.cls-218{fill:#030507;}.cls-219{fill:#9a252a;}.cls-220{fill:#52413c;}.cls-221{fill:#1e2424;}.cls-222{fill:#983033;}.cls-223{fill:#020606;}.cls-224{fill:#010304;}.cls-225{fill:#812f33;}</style></defs><g id="Layer_1-2"><g id="lNhvgd"><rect class="cls-111" x="270" y="180" width="9" height="9"/><rect class="cls-119" x="261" y="180" width="9" height="9"/><rect class="cls-224" x="252" y="180" width="9" height="9"/><rect class="cls-1" x="243" y="180" width="9" height="9"/><rect class="cls-182" x="234" y="180" width="9" height="9"/><rect class="cls-182" x="225" y="180" width="9" height="9"/><rect class="cls-150" x="216" y="180" width="9" height="9"/><rect class="cls-133" x="207" y="180" width="9" height="9"/><rect class="cls-120" x="288" y="171" width="9" height="9"/><rect class="cls-155" x="279" y="171" width="9" height="9"/><rect class="cls-113" x="270" y="171" width="9" height="9"/><rect class="cls-197" x="261" y="171" width="9" height="9"/><rect class="cls-15" x="252" y="171" width="9" height="9"/><rect class="cls-26" x="243" y="171" width="9" height="9"/><rect class="cls-214" x="234" y="171" width="9" height="9"/><rect class="cls-18" x="225" y="171" width="9" height="9"/><rect class="cls-223" x="216" y="171" width="9" height="9"/><rect class="cls-224" x="207" y="171" width="9" height="9"/><rect class="cls-73" x="198" y="171" width="9" height="9"/><rect class="cls-184" x="189" y="171" width="9" height="9"/><rect class="cls-220" x="288" y="162" width="9" height="9"/><rect class="cls-68" x="279" y="162" width="9" height="9"/><rect class="cls-94" x="270" y="162" width="9" height="9"/><rect class="cls-103" x="261" y="162" width="9" height="9"/><rect class="cls-69" x="252" y="162" width="9" height="9"/><rect class="cls-31" x="243" y="162" width="9" height="9"/><rect class="cls-51" x="234" y="162" width="9" height="9"/><rect class="cls-130" x="225" y="162" width="9" height="9"/><rect class="cls-110" x="216" y="162" width="9" height="9"/><rect class="cls-93" x="207" y="162" width="9" height="9"/><rect class="cls-121" x="198" y="162" width="9" height="9"/><rect class="cls-55" x="189" y="162" width="9" height="9"/><rect class="cls-218" x="180" y="162" width="9" height="9"/><rect class="cls-166" x="279" y="153" width="9" height="9"/><rect class="cls-151" x="270" y="153" width="9" height="9"/><rect class="cls-88" x="261" y="153" width="9" height="9"/><rect class="cls-211" x="252" y="153" width="9" height="9"/><rect class="cls-144" x="243" y="153" width="9" height="9"/><rect class="cls-17" x="234" y="153" width="9" height="9"/><rect class="cls-205" x="225" y="153" width="9" height="9"/><rect class="cls-41" x="216" y="153" width="9" height="9"/><rect class="cls-37" x="207" y="153" width="9" height="9"/><rect class="cls-203" x="198" y="153" width="9" height="9"/><rect class="cls-53" x="189" y="153" width="9" height="9"/><rect class="cls-179" x="180" y="153" width="9" height="9"/><rect class="cls-104" x="171" y="153" width="9" height="9"/><rect class="cls-104" x="162" y="153" width="9" height="9"/><rect class="cls-185" x="279" y="144" width="9" height="9"/><rect class="cls-62" x="270" y="144" width="9" height="9"/><rect class="cls-43" x="261" y="144" width="9" height="9"/><rect class="cls-115" x="252" y="144" width="9" height="9"/><rect class="cls-181" x="243" y="144" width="9" height="9"/><rect class="cls-106" x="234" y="144" width="9" height="9"/><rect class="cls-7" x="225" y="144" width="9" height="9"/><rect class="cls-156" x="216" y="144" width="9" height="9"/><rect class="cls-66" x="207" y="144" width="9" height="9"/><rect class="cls-195" x="198" y="144" width="9" height="9"/><rect class="cls-98" x="189" y="144" width="9" height="9"/><rect class="cls-42" x="180" y="144" width="9" height="9"/><rect class="cls-148" x="171" y="144" width="9" height="9"/><rect class="cls-21" x="162" y="144" width="9" height="9"/><rect class="cls-80" x="153" y="144" width="9" height="9"/><rect class="cls-125" x="144" y="144" width="9" height="9"/><rect class="cls-87" x="270" y="135" width="9" height="9"/><rect class="cls-199" x="261" y="135" width="9" height="9"/><rect class="cls-24" x="252" y="135" width="9" height="9"/><rect class="cls-16" x="243" y="135" width="9" height="9"/><rect class="cls-36" x="234" y="135" width="9" height="9"/><rect class="cls-216" x="225" y="135" width="9" height="9"/><rect class="cls-54" x="216" y="135" width="9" height="9"/><rect class="cls-124" x="207" y="135" width="9" height="9"/><rect class="cls-188" x="198" y="135" width="9" height="9"/><rect class="cls-123" x="189" y="135" width="9" height="9"/><rect class="cls-20" x="180" y="135" width="9" height="9"/><rect class="cls-196" x="171" y="135" width="9" height="9"/><rect class="cls-191" x="162" y="135" width="9" height="9"/><rect class="cls-210" x="153" y="135" width="9" height="9"/><rect class="cls-137" x="144" y="135" width="9" height="9"/><rect class="cls-159" x="135" y="135" width="9" height="9"/><rect class="cls-158" x="270" y="126" width="9" height="9"/><rect class="cls-175" x="261" y="126" width="9" height="9"/><rect class="cls-168" x="252" y="126" width="9" height="9"/><rect class="cls-169" x="243" y="126" width="9" height="9"/><rect class="cls-36" x="234" y="126" width="9" height="9"/><rect class="cls-127" x="225" y="126" width="9" height="9"/><rect class="cls-63" x="216" y="126" width="9" height="9"/><rect class="cls-23" x="207" y="126" width="9" height="9"/><rect class="cls-128" x="198" y="126" width="9" height="9"/><rect class="cls-34" x="189" y="126" width="9" height="9"/><rect class="cls-132" x="180" y="126" width="9" height="9"/><rect class="cls-140" x="171" y="126" width="9" height="9"/><rect class="cls-117" x="162" y="126" width="9" height="9"/><rect class="cls-46" x="153" y="126" width="9" height="9"/><rect class="cls-56" x="144" y="126" width="9" height="9"/><rect class="cls-38" x="135" y="126" width="9" height="9"/><rect class="cls-200" x="126" y="126" width="9" height="9"/><rect class="cls-118" x="261" y="117" width="9" height="9"/><rect class="cls-194" x="252" y="117" width="9" height="9"/><rect class="cls-46" x="243" y="117" width="9" height="9"/><rect class="cls-82" x="234" y="117" width="9" height="9"/><rect class="cls-157" x="225" y="117" width="9" height="9"/><rect class="cls-167" x="216" y="117" width="9" height="9"/><rect class="cls-70" x="207" y="117" width="9" height="9"/><rect class="cls-96" x="198" y="117" width="9" height="9"/><rect class="cls-201" x="189" y="117" width="9" height="9"/><rect class="cls-79" x="180" y="117" width="9" height="9"/><rect class="cls-28" x="171" y="117" width="9" height="9"/><rect class="cls-101" x="162" y="117" width="9" height="9"/><rect class="cls-146" x="153" y="117" width="9" height="9"/><rect class="cls-10" x="144" y="117" width="9" height="9"/><rect class="cls-21" x="135" y="117" width="9" height="9"/><rect class="cls-38" x="126" y="117" width="9" height="9"/><rect class="cls-99" x="252" y="108" width="9" height="9"/><rect class="cls-170" x="243" y="108" width="9" height="9"/><rect class="cls-33" x="234" y="108" width="9" height="9"/><rect class="cls-225" x="225" y="108" width="9" height="9"/><rect class="cls-58" x="216" y="108" width="9" height="9"/><rect class="cls-177" x="207" y="108" width="9" height="9"/><rect class="cls-215" x="198" y="108" width="9" height="9"/><rect class="cls-40" x="189" y="108" width="9" height="9"/><rect class="cls-126" x="180" y="108" width="9" height="9"/><rect class="cls-145" x="171" y="108" width="9" height="9"/><rect class="cls-83" x="162" y="108" width="9" height="9"/><rect class="cls-74" x="153" y="108" width="9" height="9"/><rect class="cls-141" x="144" y="108" width="9" height="9"/><rect class="cls-35" x="135" y="108" width="9" height="9"/><rect class="cls-47" x="126" y="108" width="9" height="9"/><rect class="cls-77" x="234" y="99" width="9" height="9"/><rect class="cls-100" x="225" y="99" width="9" height="9"/><rect class="cls-81" x="216" y="99" width="9" height="9"/><rect class="cls-176" x="207" y="99" width="9" height="9"/><rect class="cls-27" x="198" y="99" width="9" height="9"/><rect class="cls-202" x="189" y="99" width="9" height="9"/><rect class="cls-50" x="180" y="99" width="9" height="9"/><rect class="cls-3" x="171" y="99" width="9" height="9"/><rect class="cls-160" x="162" y="99" width="9" height="9"/><rect class="cls-3" x="153" y="99" width="9" height="9"/><rect class="cls-3" x="144" y="99" width="9" height="9"/><rect class="cls-107" x="135" y="99" width="9" height="9"/><rect class="cls-11" x="126" y="99" width="9" height="9"/><rect class="cls-84" x="207" y="90" width="9" height="9"/><rect class="cls-138" x="198" y="90" width="9" height="9"/><rect class="cls-109" x="189" y="90" width="9" height="9"/><rect class="cls-2" x="180" y="90" width="9" height="9"/><rect class="cls-190" x="171" y="90" width="9" height="9"/><rect class="cls-178" x="162" y="90" width="9" height="9"/><rect class="cls-90" x="153" y="90" width="9" height="9"/><rect class="cls-45" x="144" y="90" width="9" height="9"/><rect class="cls-6" x="135" y="90" width="9" height="9"/><rect class="cls-32" x="126" y="90" width="9" height="9"/><rect class="cls-75" x="180" y="81" width="9" height="9"/><rect class="cls-186" x="171" y="81" width="9" height="9"/><rect class="cls-72" x="162" y="81" width="9" height="9"/><rect class="cls-64" x="153" y="81" width="9" height="9"/><rect class="cls-171" x="144" y="81" width="9" height="9"/><rect class="cls-76" x="135" y="81" width="9" height="9"/><rect class="cls-97" x="126" y="81" width="9" height="9"/><rect class="cls-165" x="117" y="81" width="9" height="9"/><rect class="cls-152" x="153" y="72" width="9" height="9"/><rect class="cls-198" x="144" y="72" width="9" height="9"/><rect class="cls-114" x="135" y="72" width="9" height="9"/><rect class="cls-30" x="126" y="72" width="9" height="9"/><rect class="cls-60" x="117" y="72" width="9" height="9"/><rect class="cls-111" x="108" y="72" width="9" height="9"/><rect class="cls-162" x="99" y="72" width="9" height="9"/><rect class="cls-22" x="117" y="63" width="9" height="9"/><rect class="cls-162" x="108" y="63" width="9" height="9"/><rect class="cls-67" x="99" y="63" width="9" height="9"/><rect class="cls-85" x="90" y="63" width="9" height="9"/><rect class="cls-174" x="81" y="63" width="9" height="9"/><rect class="cls-173" x="54" y="63" width="9" height="9"/><rect class="cls-147" x="45" y="63" width="9" height="9"/><rect class="cls-154" x="117" y="54" width="9" height="9"/><rect class="cls-183" x="108" y="54" width="9" height="9"/><rect class="cls-208" x="99" y="54" width="9" height="9"/><rect class="cls-204" x="90" y="54" width="9" height="9"/><rect class="cls-49" x="81" y="54" width="9" height="9"/><rect class="cls-164" x="72" y="54" width="9" height="9"/><rect class="cls-122" x="63" y="54" width="9" height="9"/><rect class="cls-95" x="54" y="54" width="9" height="9"/><rect class="cls-136" x="45" y="54" width="9" height="9"/><rect class="cls-14" x="108" y="45" width="9" height="9"/><rect class="cls-206" x="99" y="45" width="9" height="9"/><rect class="cls-116" x="90" y="45" width="9" height="9"/><rect class="cls-131" x="81" y="45" width="9" height="9"/><rect class="cls-134" x="72" y="45" width="9" height="9"/><rect class="cls-48" x="63" y="45" width="9" height="9"/><rect class="cls-111" x="54" y="45" width="9" height="9"/><rect class="cls-13" x="45" y="45" width="9" height="9"/><rect class="cls-86" x="36" y="45" width="9" height="9"/><rect class="cls-139" x="99" y="36" width="9" height="9"/><rect class="cls-192" x="90" y="36" width="9" height="9"/><rect class="cls-29" x="81" y="36" width="9" height="9"/><rect class="cls-213" x="72" y="36" width="9" height="9"/><rect class="cls-135" x="63" y="36" width="9" height="9"/><rect class="cls-172" x="54" y="36" width="9" height="9"/><rect class="cls-65" x="45" y="36" width="9" height="9"/><rect class="cls-180" x="36" y="36" width="9" height="9"/><rect class="cls-19" x="27" y="36" width="9" height="9"/><rect class="cls-89" x="99" y="27" width="9" height="9"/><rect class="cls-9" x="90" y="27" width="9" height="9"/><rect class="cls-71" x="81" y="27" width="9" height="9"/><rect class="cls-108" x="72" y="27" width="9" height="9"/><rect class="cls-112" x="63" y="27" width="9" height="9"/><rect class="cls-44" x="54" y="27" width="9" height="9"/><rect class="cls-189" x="45" y="27" width="9" height="9"/><rect class="cls-91" x="36" y="27" width="9" height="9"/><rect class="cls-78" x="27" y="27" width="9" height="9"/><rect class="cls-209" x="18" y="27" width="9" height="9"/><rect class="cls-143" x="9" y="27" width="9" height="9"/><rect class="cls-61" x="90" y="18" width="9" height="9"/><rect class="cls-57" x="81" y="18" width="9" height="9"/><rect class="cls-92" x="72" y="18" width="9" height="9"/><rect class="cls-149" x="63" y="18" width="9" height="9"/><rect class="cls-12" x="54" y="18" width="9" height="9"/><rect class="cls-219" x="45" y="18" width="9" height="9"/><rect class="cls-4" x="36" y="18" width="9" height="9"/><rect class="cls-153" x="27" y="18" width="9" height="9"/><rect class="cls-5" x="18" y="18" width="9" height="9"/><rect class="cls-221" x="9" y="18" width="9" height="9"/><rect class="cls-105" y="18" width="9" height="9"/><rect class="cls-217" x="81" y="9" width="9" height="9"/><rect class="cls-25" x="72" y="9" width="9" height="9"/><rect class="cls-187" x="63" y="9" width="9" height="9"/><rect class="cls-222" x="54" y="9" width="9" height="9"/><rect class="cls-212" x="45" y="9" width="9" height="9"/><rect class="cls-8" x="36" y="9" width="9" height="9"/><rect class="cls-207" x="27" y="9" width="9" height="9"/><rect class="cls-129" x="18" y="9" width="9" height="9"/><rect class="cls-161" x="9" y="9" width="9" height="9"/><rect class="cls-52" y="9" width="9" height="9"/><rect class="cls-39" x="54" width="9" height="9"/><rect class="cls-142" x="45" width="9" height="9"/><rect class="cls-193" x="36" width="9" height="9"/><rect class="cls-163" x="27" width="9" height="9"/><rect class="cls-102" x="18" width="9" height="9"/><rect class="cls-59" x="9" width="9" height="9"/></g><rect class="cls-173" x="198" y="189" width="9" height="9"/><rect class="cls-147" x="189" y="189" width="9" height="9"/><rect class="cls-95" x="198" y="180" width="9" height="9"/><rect class="cls-136" x="189" y="180" width="9" height="9"/></g></svg>